<?xml version="1.0" encoding="utf-8"?>
<!-- Generator: Adobe Illustrator 25.2.1, SVG Export Plug-In . SVG Version: 6.00 Build 0)  -->
<svg version="1.1" id="Capa_1" xmlns="http://www.w3.org/2000/svg" xmlns:xlink="http://www.w3.org/1999/xlink" x="0px" y="0px"
	 viewBox="0 0 612 792" style="enable-background:new 0 0 612 792;" xml:space="preserve">
<style type="text/css">
	.st0{stroke:#FFFFFF;stroke-miterlimit:10;}
	.st1{fill:#24B4E9;stroke:#000000;stroke-miterlimit:10;}
	.st2{fill:#FFF268;stroke:#000000;stroke-miterlimit:10;}
	.st3{fill:#7DB928;stroke:#000000;stroke-miterlimit:10;}
	.st4{fill:#F39200;stroke:#000000;stroke-miterlimit:10;}
	.st5{fill:#FFFFFF;stroke:#000000;stroke-miterlimit:10;}
</style>
<rect class="st0" width="612" height="742.65"/>
<rect class="st1" width="276.78" height="339.61"/>
<rect y="358.26" class="st2" width="276.78" height="339.61"/>
<rect x="293.04" y="358.26" class="st3" width="276.78" height="339.61"/>
<rect x="293.04" class="st4" width="276.78" height="339.61"/>
<path class="st5" d="M267.06,65.28c-6.9-0.17-9.41,8.77-11.11,15.46c-1.7,6.69-9.45,14.13-14.22,9.13
	c-0.12-4.55-3.29-8.86-7.59-10.34c0.42,8.66,0.85,17.31,1.27,25.97c-3.52-13.13-13.02-24.53-25.3-30.35
	c4.99,15.2,9.97,30.39,14.96,45.59c-7.15-11.77-14.7-23.96-26.35-31.28c-5.21,5.97-1.66,15.31,2.89,21.8
	c4.54,6.49,10.22,13.64,8.55,21.38c-5.16-6.39-10.31-12.77-15.47-19.16c-1.01-1.25-2.08-2.55-3.56-3.19
	c-4.42-1.92-9.05,3.73-8.21,8.48s4.83,8.19,8.5,11.31c3.67,3.12,7.53,6.8,7.97,11.6c-7.92,0-15.42-6.14-16.96-13.91
	c-8.21,24.7-16.46,51.39-8.75,76.25c2.53,8.15,6.73,15.86,7.76,24.34c-5.41-6.69-10.82-13.37-16.23-20.06
	c-3.58,52.66,16.1,106.49,52.79,144.43c8.32,8.6,17.43,16.39,26.08,24.65c11.6,11.09,22.37,23.03,32.2,35.72
	c16.64,21.47,30.85,45.85,34.57,72.76s-4.83,56.7-26.54,73.02c-16.65,12.51-43.02,14.46-56.78-1.17
	c-7.38-8.38-9.82-19.92-11.34-30.98c-1.81-13.19-2.62-26.96,1.83-39.51c5.24-14.75,17.08-26.03,28.52-36.72
	c-18.29-15.79-46.08-19.53-67.89-9.14c-18.21-17.13-45.2-24.39-69.55-18.71c2.26,15.92,17.46,26.35,25.69,40.17
	c8.92,14.99,9.26,33.32,11.69,50.59c3.61,25.71,12.41,50.69,25.71,72.99c6.39,10.7,13.89,20.89,23.37,28.98
	c16,13.65,36.71,20.57,57.38,24.51c18.94,3.61,38.53,4.96,57.48,1.42c32.87-6.13,62.01-27.01,81.55-54.14
	c19.53-27.13,29.95-60.11,33.42-93.37c8.23-78.71-23.26-160.57-82.13-213.46c-11.46-10.3-24.07-19.78-32.34-32.77
	c-12.8-20.13-13.26-45.43-13.32-69.28c13.26,18.7,35.45,30.76,58.36,31.71c17.1,0.71,36.61-3.71,49.58,7.46
	c6.42,5.53,14.2,14.93,20.96,9.84c3.25-2.45,3.67-7.09,3.81-11.16c0.34-10.22,0.68-20.45,1.02-30.67
	c0.25-7.54,0.41-15.49-3.15-22.14c-5.91-11.06-19.61-14.7-31.4-18.98c-22.36-8.11-42.48-22.27-57.67-40.57
	c-2.49-3.01-4.97-6.44-4.94-10.35c0.07-8.52,10.64-11.91,17.89-16.37c8.32-5.12,13.85-14.5,14.3-24.25c0.12-2.63-0.2-5.51-2.01-7.42
	c-5.33-5.61-13.52,2.59-18.02,8.89c-6.72,9.42-16.65,16.51-27.74,19.82c-5.74-5.06-13.89-7.25-21.39-5.77
	c0.57-9.7,0.79-20.48-5.58-27.81c-3.84-4.43-10.88-5.76-16.29-3.81c-5.62,2.03-8.12,6.99-8.19,12.58
	C267.09,54.63,267.09,59.95,267.06,65.28z"/>
</svg>
